<svg width="247" height="28" viewBox="0 0 247 28" fill="none" xmlns="http://www.w3.org/2000/svg">
<path fill-rule="evenodd" clip-rule="evenodd" d="M14.1229 28C12.1948 28 10.3733 27.6286 8.65794 26.886C6.94266 26.1432 5.44642 25.1405 4.16946 23.8781C2.89228 22.6153 1.87818 21.136 1.12706 19.4405C0.375932 17.7446 0 15.9309 0 13.9998C0 12.0936 0.375932 10.2927 1.12706 8.59681C1.87818 6.90095 2.89861 5.42166 4.18804 4.15916C5.47788 2.89645 6.97411 1.89374 8.67684 1.15113C10.3796 0.408512 12.1948 0.0369489 14.1229 0.0369489V3.11929C12.6207 3.11929 11.1995 3.40414 9.85974 3.97339C8.52028 4.54295 7.34962 5.32282 6.34809 6.31312C5.34613 7.3033 4.5513 8.46071 3.96275 9.785C3.37441 11.1096 3.08019 12.5147 3.08019 13.9998C3.08019 15.4853 3.37441 16.8904 3.96275 18.215C4.5513 19.5393 5.34613 20.6967 6.34809 21.6869C7.34962 22.6772 8.52028 23.4632 9.85974 24.0452C11.1995 24.6269 12.6207 24.9178 14.1229 24.9178V28ZM15.9259 28V0.0369489H19.0061V28H15.9259ZM34.7063 28C32.8034 28 31.0066 27.6162 29.3165 26.8488C27.6263 26.0813 26.1549 25.0537 24.9031 23.7665C23.6511 22.4792 22.6558 20.9875 21.9169 19.2916C21.1784 17.5961 20.8088 15.8196 20.8088 13.9628C20.8088 12.0812 21.1721 10.3051 21.898 8.63376C22.6243 6.96274 23.6196 5.49588 24.8843 4.23349C26.149 2.97078 27.6201 1.9618 29.2977 1.20676C30.9753 0.451728 32.7656 0.0493681 34.6689 0V3.04498C33.1915 3.09467 31.8018 3.41625 30.4997 4.01065C29.1974 4.60475 28.0582 5.39704 27.0817 6.38733C26.1049 7.37762 25.3287 8.52259 24.7529 9.82225C24.1768 11.122 23.8889 12.5021 23.8889 13.9628C23.8889 15.275 24.1269 16.5437 24.6024 17.7691C25.0782 18.9946 25.7293 20.0902 26.5556 21.0558C27.3821 22.0212 28.3586 22.8381 29.4856 23.5067C30.6122 24.1751 31.8391 24.6082 33.1664 24.8065V21.4271H28.8844V18.3818H36.2839V28H34.7063ZM52.2846 28V21.4271H43.0072V28H39.8896V21.4271H38.0866V18.3818H39.8896V13.9998C39.8896 12.1185 40.2589 10.3297 40.9978 8.63376C41.7364 6.93821 42.7379 5.45266 44.0025 4.17753C45.2672 2.90272 46.7383 1.89374 48.416 1.15113C50.0939 0.408512 51.8842 0.0369489 53.7872 0.0369489H55.3648V28H52.2846ZM52.2846 3.23077C50.9577 3.42877 49.7305 3.85596 48.6039 4.51185C47.4769 5.16804 46.5004 5.97871 45.6742 6.94416C44.8476 7.90982 44.1968 8.99917 43.721 10.2122C43.2452 11.4252 43.0072 12.688 43.0072 13.9998V18.3818H52.2846V3.23077ZM71.8164 28C70.5644 28 69.3686 27.6286 68.2294 26.886C67.0901 26.1432 66.032 25.0849 65.0554 23.7109C64.0787 22.3369 63.1899 20.678 62.3886 18.7348C61.5872 16.7913 60.886 14.6313 60.2851 12.2546V28H57.1675V0H60.9612C61.6374 0 62.2698 0.129835 62.8581 0.389933C63.4464 0.649718 63.96 0.996448 64.3981 1.4296C64.8364 1.86306 65.1869 2.37042 65.4499 2.9521C65.7126 3.53408 65.8443 4.15917 65.8443 4.82758C65.8443 5.81777 65.5624 6.72132 64.999 7.53857C64.4358 8.35539 63.6906 8.93706 62.7641 9.28379C63.2651 11.5613 63.8471 13.6596 64.5108 15.5782C65.1743 17.4969 65.9005 19.1492 66.6894 20.5357C67.4783 21.9221 68.3045 23.0052 69.1684 23.7852C70.0323 24.5651 70.9149 24.955 71.8164 24.955V28ZM62.2383 3.56477C61.9878 3.31751 61.7436 3.16897 61.5058 3.11929C61.2682 3.06982 61.0114 3.04498 60.7358 3.04498H60.2851V6.53585C60.6107 6.53585 60.8361 6.54827 60.9612 6.5728C61.4872 6.5728 61.9128 6.3936 62.2383 6.03434C62.5639 5.67551 62.7267 5.27315 62.7267 4.82758C62.7267 4.3077 62.5639 3.88676 62.2383 3.56477ZM106.748 15.5597C105.571 15.5597 104.419 15.733 103.292 16.0794C103.443 16.5005 103.549 16.9336 103.612 17.3792C103.674 17.8251 103.706 18.2581 103.706 18.6789C103.706 19.9417 103.455 21.1423 102.954 22.2813C102.454 23.4201 101.771 24.4103 100.907 25.2521C100.043 26.0937 99.0418 26.7621 97.9025 27.2574C96.763 27.7523 95.5549 28 94.2776 28C93.0008 28 91.7924 27.7523 90.6531 27.2574C89.5139 26.7621 88.5186 26.0937 87.6672 25.2521C86.8158 24.4103 86.1395 23.4201 85.6389 22.2813C85.138 21.1423 84.8875 19.9417 84.8875 18.6789C84.8875 17.1194 85.2693 15.6587 86.0333 14.2972C86.797 12.9353 87.8297 11.8338 89.1321 10.9921C88.506 10.3978 88.0302 9.70451 87.7046 8.91253C87.379 8.12023 87.2162 7.30331 87.2162 6.46154C87.2162 5.59504 87.3854 4.77194 87.7235 3.99206C88.0613 3.21218 88.5249 2.53137 89.1132 1.9497C89.7015 1.36771 90.3901 0.903553 91.179 0.557034C91.9678 0.210306 92.8003 0.0369489 93.6768 0.0369489C94.6285 0.0369489 95.5424 0.241422 96.4188 0.649731C97.2953 1.05825 98.0465 1.63406 98.6725 2.37667L96.2686 4.30768C95.5923 3.51539 94.7286 3.11929 93.6768 3.11929C93.2261 3.11929 92.7943 3.20593 92.381 3.3793C91.9678 3.55266 91.6047 3.78792 91.2917 4.08496C90.9787 4.38201 90.7345 4.73469 90.5592 5.1432C90.3841 5.55183 90.2964 5.99113 90.2964 6.46154C90.2964 7.25363 90.5717 7.96546 91.1227 8.59681C91.6736 9.22816 92.3873 9.56842 93.2635 9.6181V12.6632C92.5124 12.7622 91.8112 12.9912 91.1604 13.3502C90.5092 13.709 89.9457 14.1546 89.4699 14.6871C88.9941 15.2194 88.6248 15.8321 88.3621 16.5253C88.099 17.2186 87.9677 17.9362 87.9677 18.6789C87.9677 19.5455 88.1368 20.3564 88.4746 21.1115C88.8127 21.8665 89.2634 22.5287 89.827 23.0981C90.3901 23.6674 91.0539 24.1132 91.8176 24.4348C92.5813 24.7567 93.4014 24.9178 94.2776 24.9178C95.1793 24.9178 96.0118 24.7443 96.7755 24.3979C97.5392 24.0511 98.2029 23.5931 98.7664 23.0239C99.3297 22.4543 99.7743 21.7985 100.1 21.0558C100.425 20.3129 100.588 19.5455 100.588 18.7535C100.588 18.5303 100.582 18.3013 100.569 18.0662C100.557 17.8312 100.525 17.6022 100.476 17.3792C98.7476 18.4934 97.3953 19.9665 96.4188 21.7985L93.6768 20.4245C94.3028 19.236 95.079 18.1528 96.0056 17.175C96.9321 16.1972 97.9651 15.3617 99.1043 14.6685C100.244 13.9753 101.464 13.4431 102.767 13.0717C104.069 12.7001 105.396 12.5147 106.748 12.5147V15.5597ZM128.458 3.11929V28H125.378V3.11929H119.819V0.0369489H134.017V3.11929H128.458ZM145.548 4.79052C145.548 5.43409 145.417 6.04675 145.154 6.62874C144.891 7.21041 144.534 7.71778 144.084 8.15124C143.633 8.58439 143.113 8.93112 142.525 9.1909C141.936 9.451 141.317 9.58084 140.666 9.58084C140.014 9.58084 139.395 9.451 138.806 9.1909C138.218 8.93112 137.704 8.58439 137.266 8.15124C136.828 7.71778 136.477 7.21041 136.214 6.62874C135.952 6.04675 135.82 5.43409 135.82 4.79052C135.82 4.14675 135.952 3.53408 136.214 2.9521C136.477 2.37042 136.828 1.86306 137.266 1.4296C137.704 0.996448 138.218 0.649718 138.806 0.389933C139.395 0.129835 140.014 0 140.666 0C141.317 0 141.936 0.129835 142.525 0.389933C143.113 0.649718 143.633 0.996448 144.084 1.4296C144.534 1.86306 144.891 2.37042 145.154 2.9521C145.417 3.53408 145.548 4.14675 145.548 4.79052ZM142.431 4.79052C142.431 4.29527 142.262 3.8805 141.924 3.54651C141.586 3.2122 141.166 3.04498 140.666 3.04498C140.19 3.04498 139.776 3.2122 139.426 3.54651C139.075 3.8805 138.9 4.29527 138.9 4.79052C138.9 5.26072 139.075 5.66924 139.426 6.01607C139.776 6.36248 140.19 6.53585 140.666 6.53585C141.166 6.53585 141.586 6.36248 141.924 6.01607C142.262 5.66924 142.431 5.26072 142.431 4.79052ZM163.953 10.7693C163.953 11.8338 163.79 12.8735 163.465 13.8886C163.139 14.9037 162.676 15.8443 162.075 16.7108C161.474 17.5774 160.761 18.3511 159.934 19.0318C159.108 19.7127 158.206 20.2511 157.23 20.6472C157.505 21.0434 157.699 21.4579 157.812 21.8913C157.925 22.3245 157.981 22.7514 157.981 23.1724C157.981 23.7665 157.862 24.3547 157.624 24.9363C157.386 25.518 157.048 26.0319 156.61 26.4775C156.172 26.9231 155.658 27.2882 155.07 27.573C154.482 27.8576 153.837 28 153.136 28H148.854V21.4641H147.351V18.3818H148.854V0.0742142H153.136C154.613 0.0742142 156.009 0.358841 157.324 0.928406C158.638 1.49766 159.784 2.26511 160.761 3.23077C161.737 4.19622 162.513 5.32877 163.089 6.62874C163.665 7.9285 163.953 9.30864 163.953 10.7693ZM152.61 24.955C153.286 24.955 153.831 24.7941 154.244 24.4722C154.657 24.1502 154.864 23.7296 154.864 23.2094C154.864 22.7638 154.713 22.3614 154.413 22.0026C154.112 21.6437 153.687 21.4641 153.136 21.4641H151.971V24.955H152.61ZM160.836 10.7693C160.836 9.72936 160.629 8.74533 160.216 7.81693C159.803 6.88853 159.252 6.07786 158.563 5.38461C157.875 4.69147 157.061 4.14058 156.122 3.73196C155.183 3.32365 154.187 3.11929 153.136 3.11929H151.971V18.3818H153.136C154.187 18.3818 155.183 18.1839 156.122 17.7877C157.061 17.3916 157.881 16.8469 158.582 16.1537C159.283 15.4605 159.834 14.6498 160.234 13.7214C160.635 12.793 160.836 11.809 160.836 10.7693ZM179.954 28V21.4271H170.677V28H167.559V21.4271H165.756V18.3818H167.559V13.9998C167.559 12.1185 167.928 10.3297 168.667 8.63376C169.406 6.93821 170.407 5.45266 171.672 4.17753C172.937 2.90272 174.408 1.89374 176.085 1.15113C177.763 0.408512 179.554 0.0369489 181.456 0.0369489H183.034V28H179.954ZM179.954 3.23077C178.627 3.42877 177.4 3.85596 176.273 4.51185C175.146 5.16804 174.17 5.97871 173.344 6.94416C172.517 7.90982 171.866 8.99917 171.39 10.2122C170.914 11.4252 170.677 12.688 170.677 13.9998V18.3818H179.954V3.23077ZM209.251 23.5437C207.899 24.955 206.34 26.0381 204.575 26.7931C202.81 27.5482 200.951 27.9257 198.997 27.9257C197.044 27.9257 195.21 27.5544 193.495 26.8115C191.779 26.0689 190.283 25.0663 189.006 23.8038C187.729 22.5411 186.715 21.0618 185.964 19.3661C185.213 17.6703 184.837 15.8691 184.837 13.9628C184.837 12.0566 185.213 10.2554 185.964 8.55954C186.715 6.86369 187.735 5.38462 189.025 4.12191C190.315 2.85952 191.817 1.85681 193.532 1.11388C195.247 0.371262 197.069 0 198.997 0C200.951 0 202.81 0.377514 204.575 1.13255C206.34 1.88759 207.899 2.97078 209.251 4.38201L206.998 6.46154C205.946 5.34736 204.732 4.49942 203.355 3.91775C201.977 3.33577 200.525 3.04498 198.997 3.04498C197.495 3.04498 196.074 3.32992 194.734 3.89917C193.394 4.46864 192.224 5.24851 191.222 6.23881C190.221 7.2291 189.425 8.38649 188.837 9.71078C188.249 11.0353 187.954 12.4528 187.954 13.9628C187.954 15.4484 188.249 16.8531 188.837 18.1776C189.425 19.5022 190.221 20.6596 191.222 21.6499C192.224 22.6401 193.394 23.4263 194.734 24.0079C196.074 24.5896 197.495 24.8807 198.997 24.8807C200.525 24.8807 201.977 24.5837 203.355 23.9893C204.732 23.3952 205.946 22.5411 206.998 21.4271L209.251 23.5437ZM235.469 23.5437C234.117 24.955 232.558 26.0381 230.793 26.7931C229.027 27.5482 227.168 27.9257 225.215 27.9257C223.262 27.9257 221.427 27.5544 219.712 26.8115C217.997 26.0689 216.501 25.0663 215.224 23.8038C213.946 22.5411 212.932 21.0618 212.181 19.3661C211.43 17.6703 211.054 15.8691 211.054 13.9628C211.054 12.0566 211.43 10.2554 212.181 8.55954C212.932 6.86369 213.953 5.38462 215.242 4.12191C216.532 2.85952 218.034 1.85681 219.75 1.11388C221.465 0.371262 223.287 0 225.215 0C227.168 0 229.027 0.377514 230.793 1.13255C232.558 1.88759 234.117 2.97078 235.469 4.38201L233.215 6.46154C232.163 5.34736 230.949 4.49942 229.572 3.91775C228.195 3.33577 226.742 3.04498 225.215 3.04498C223.712 3.04498 222.291 3.32992 220.952 3.89917C219.612 4.46864 218.441 5.24851 217.44 6.23881C216.438 7.2291 215.643 8.38649 215.055 9.71078C214.466 11.0353 214.172 12.4528 214.172 13.9628C214.172 15.4484 214.466 16.8531 215.055 18.1776C215.643 19.5022 216.438 20.6596 217.44 21.6499C218.441 22.6401 219.612 23.4263 220.952 24.0079C222.291 24.5896 223.712 24.8807 225.215 24.8807C226.742 24.8807 228.195 24.5837 229.572 23.9893C230.949 23.3952 232.163 22.5411 233.215 21.4271L235.469 23.5437ZM247 4.79052C247 5.43409 246.869 6.04675 246.606 6.62874C246.343 7.21041 245.986 7.71778 245.535 8.15124C245.084 8.58439 244.565 8.93112 243.976 9.1909C243.388 9.451 242.768 9.58084 242.117 9.58084C241.466 9.58084 240.846 9.451 240.258 9.1909C239.669 8.93112 239.156 8.58439 238.718 8.15124C238.28 7.71778 237.929 7.21041 237.666 6.62874C237.403 6.04675 237.272 5.43409 237.272 4.79052C237.272 4.14675 237.403 3.53408 237.666 2.9521C237.929 2.37042 238.28 1.86306 238.718 1.4296C239.156 0.996448 239.669 0.649718 240.258 0.389933C240.846 0.129835 241.466 0 242.117 0C242.768 0 243.388 0.129835 243.976 0.389933C244.565 0.649718 245.084 0.996448 245.535 1.4296C245.986 1.86306 246.343 2.37042 246.606 2.9521C246.869 3.53408 247 4.14675 247 4.79052ZM243.882 4.79052C243.882 4.29527 243.713 3.8805 243.375 3.54651C243.037 3.2122 242.618 3.04498 242.117 3.04498C241.641 3.04498 241.228 3.2122 240.878 3.54651C240.527 3.8805 240.352 4.29527 240.352 4.79052C240.352 5.26072 240.527 5.66924 240.878 6.01607C241.228 6.36248 241.641 6.53585 242.117 6.53585C242.618 6.53585 243.037 6.36248 243.375 6.01607C243.713 5.66924 243.882 5.26072 243.882 4.79052Z" fill="#A27347"/>
</svg>
