<svg width="216" height="24" viewBox="0 0 216 24" fill="none" xmlns="http://www.w3.org/2000/svg">
<path fill-rule="evenodd" clip-rule="evenodd" d="M12.3504 24C10.6643 24 9.07142 23.6817 7.57132 23.0452C6.07131 22.4085 4.76286 21.549 3.64616 20.4669C2.52928 19.3845 1.64246 18.1166 0.985605 16.6632C0.32875 15.2097 0 13.6551 0 11.9998C0 10.366 0.32875 8.82228 0.985605 7.36869C1.64246 5.9151 2.53482 4.64714 3.66241 3.565C4.79037 2.48268 6.09882 1.62321 7.58784 0.986681C9.07687 0.350153 10.6643 0.0316705 12.3504 0.0316705V2.67368C11.0367 2.67368 9.79391 2.91783 8.62228 3.40576C7.45093 3.89396 6.4272 4.56242 5.55137 5.41124C4.67516 6.25997 3.98008 7.25204 3.4654 8.38714C2.9509 9.52251 2.69361 10.7269 2.69361 11.9998C2.69361 13.2731 2.9509 14.4775 3.4654 15.6129C3.98008 16.748 4.67516 17.74 5.55137 18.5888C6.4272 19.4376 7.45093 20.1113 8.62228 20.6102C9.79391 21.1087 11.0367 21.3581 12.3504 21.3581V24ZM13.9271 24V0.0316705H16.6207V24H13.9271ZM30.3505 24C28.6864 24 27.1151 23.671 25.6371 23.0132C24.159 22.3554 22.8723 21.4746 21.7776 20.3713C20.6827 19.2679 19.8124 17.9893 19.1662 16.5357C18.5203 15.0823 18.1971 13.5597 18.1971 11.9682C18.1971 10.3553 18.5149 8.83293 19.1497 7.40036C19.7848 5.96807 20.6552 4.71076 21.7611 3.6287C22.8671 2.54638 24.1536 1.68154 25.6206 1.03437C27.0877 0.387195 28.6533 0.0423156 30.3178 0V2.60999C29.0258 2.65257 27.8105 2.92821 26.6718 3.4377C25.5329 3.94693 24.5367 4.62603 23.6828 5.47485C22.8286 6.32368 22.1498 7.30508 21.6463 8.41907C21.1425 9.53315 20.8907 10.7161 20.8907 11.9682C20.8907 13.0929 21.0988 14.1803 21.5146 15.2307C21.9307 16.2811 22.5001 17.2202 23.2227 18.0479C23.9455 18.8753 24.7995 19.5755 25.785 20.1486C26.7702 20.7215 27.8431 21.0927 29.0038 21.2627V18.3661H25.2592V15.7558H31.7301V24H30.3505ZM45.7226 24V18.3661H37.6095V24H34.8833V18.3661H33.3065V15.7558H34.8833V11.9998C34.8833 10.3873 35.2062 8.85404 35.8523 7.40036C36.4982 5.94704 37.374 4.67371 38.4799 3.58074C39.5859 2.48804 40.8724 1.62321 42.3395 0.986681C43.8068 0.350153 45.3724 0.0316705 47.0366 0.0316705H48.4162V24H45.7226ZM45.7226 2.76923C44.5622 2.93894 43.489 3.30511 42.5038 3.8673C41.5183 4.42975 40.6643 5.1246 39.9418 5.95214C39.219 6.77984 38.6498 7.71357 38.2337 8.75331C37.8176 9.79305 37.6095 10.8755 37.6095 11.9998V15.7558H45.7226V2.76923ZM62.803 24C61.7081 24 60.6624 23.6817 59.6662 23.0452C58.6699 22.4085 57.7445 21.5013 56.8906 20.3236C56.0364 19.1459 55.2592 17.724 54.5584 16.0584C53.8576 14.3925 53.2444 12.5411 52.719 10.5039V24H49.9927V0H53.3102C53.9016 0 54.4546 0.111287 54.9691 0.334229C55.4835 0.556901 55.9326 0.854099 56.3157 1.22537C56.699 1.59691 57.0055 2.03179 57.2355 2.53037C57.4653 3.02921 57.5804 3.56501 57.5804 4.13793C57.5804 4.98666 57.3339 5.76114 56.8412 6.46163C56.3487 7.16177 55.697 7.66034 54.8868 7.95753C55.325 9.9097 55.8339 11.7083 56.4143 13.3528C56.9946 14.9974 57.6296 16.4136 58.3194 17.6021C59.0093 18.7904 59.7318 19.7188 60.4874 20.3873C61.2428 21.0558 62.0146 21.39 62.803 21.39V24ZM54.427 3.05551C54.208 2.84358 53.9944 2.71626 53.7864 2.67368C53.5786 2.63127 53.3541 2.60999 53.1131 2.60999H52.719V5.60216C53.0037 5.60216 53.2008 5.61281 53.3102 5.63383C53.7702 5.63383 54.1423 5.48023 54.427 5.1723C54.7118 4.86472 54.8541 4.51984 54.8541 4.13793C54.8541 3.69231 54.7118 3.33151 54.427 3.05551ZM93.3506 13.3368C92.3213 13.3368 91.314 13.4854 90.3285 13.7824C90.4599 14.1433 90.553 14.5145 90.6078 14.8964C90.6624 15.2786 90.6899 15.6498 90.6899 16.0104C90.6899 17.0929 90.4708 18.1219 90.0331 19.0982C89.595 20.0744 88.9984 20.9231 88.2428 21.6446C87.4873 22.3661 86.6114 22.939 85.6151 23.3635C84.6186 23.7877 83.5622 24 82.4452 24C81.3286 24 80.2719 23.7877 79.2756 23.3635C78.2794 22.939 77.409 22.3661 76.6645 21.6446C75.9199 20.9231 75.3285 20.0744 74.8907 19.0982C74.4527 18.1219 74.2336 17.0929 74.2336 16.0104C74.2336 14.6738 74.5675 13.4217 75.2356 12.2547C75.9035 11.0874 76.8065 10.1433 77.9455 9.42177C77.3979 8.91237 76.9818 8.31815 76.6971 7.63931C76.4124 6.9602 76.2701 6.25998 76.2701 5.53847C76.2701 4.79575 76.418 4.09023 76.7137 3.42177C77.0091 2.7533 77.4145 2.16975 77.929 1.67117C78.4435 1.17233 79.0456 0.774474 79.7355 0.477458C80.4253 0.180262 81.1533 0.0316705 81.9197 0.0316705C82.752 0.0316705 83.5512 0.206933 84.3177 0.556912C85.0842 0.907069 85.741 1.40062 86.2885 2.03715L84.1863 3.6923C83.5949 3.01319 82.8396 2.67368 81.9197 2.67368C81.5256 2.67368 81.148 2.74794 80.7866 2.89654C80.4253 3.04514 80.1078 3.24679 79.8341 3.5014C79.5603 3.75601 79.3468 4.0583 79.1935 4.40846C79.0404 4.75871 78.9637 5.13526 78.9637 5.53847C78.9637 6.2174 79.2044 6.82753 79.6863 7.36869C80.168 7.90985 80.7922 8.2015 81.5584 8.24409V10.8542C80.9016 10.9391 80.2884 11.1353 79.7192 11.443C79.1498 11.7506 78.657 12.1325 78.2409 12.5889C77.8248 13.0452 77.5019 13.5703 77.2721 14.1646C77.042 14.7588 76.9272 15.3739 76.9272 16.0104C76.9272 16.7533 77.0751 17.4484 77.3705 18.0955C77.6662 18.7427 78.0603 19.3103 78.5531 19.7984C79.0456 20.2863 79.6261 20.6685 80.2939 20.9441C80.9617 21.22 81.679 21.3581 82.4452 21.3581C83.2337 21.3581 83.9618 21.2094 84.6296 20.9125C85.2974 20.6153 85.8779 20.2227 86.3707 19.7348C86.8632 19.2466 87.252 18.6844 87.5365 18.0479C87.8212 17.4111 87.9635 16.7533 87.9635 16.0744C87.9635 15.8831 87.9581 15.6869 87.9471 15.4853C87.9361 15.2839 87.9089 15.0876 87.8652 14.8964C86.3541 15.8515 85.1716 17.1141 84.3177 18.6844L81.9197 17.5067C82.4672 16.488 83.146 15.5596 83.9563 14.7215C84.7665 13.8833 85.6699 13.1671 86.6661 12.573C87.6627 11.9788 88.7301 11.5226 89.8687 11.2043C91.0073 10.8858 92.168 10.7269 93.3506 10.7269V13.3368ZM112.336 2.67368V24H109.642V2.67368H104.781V0.0316705H117.197V2.67368H112.336ZM127.281 4.10616C127.281 4.65779 127.166 5.18293 126.936 5.68178C126.706 6.18035 126.394 6.61524 126 6.98678C125.606 7.35805 125.152 7.65524 124.637 7.87792C124.123 8.10086 123.581 8.21214 123.011 8.21214C122.442 8.21214 121.9 8.10086 121.385 7.87792C120.871 7.65524 120.422 7.35805 120.039 6.98678C119.655 6.61524 119.349 6.18035 119.119 5.68178C118.889 5.18293 118.774 4.65779 118.774 4.10616C118.774 3.55435 118.889 3.02921 119.119 2.53037C119.349 2.03179 119.655 1.59691 120.039 1.22537C120.422 0.854099 120.871 0.556901 121.385 0.334229C121.9 0.111287 122.442 0 123.011 0C123.581 0 124.123 0.111287 124.637 0.334229C125.152 0.556901 125.606 0.854099 126 1.22537C126.394 1.59691 126.706 2.03179 126.936 2.53037C127.166 3.02921 127.281 3.55435 127.281 4.10616ZM124.555 4.10616C124.555 3.68166 124.407 3.32614 124.112 3.03986C123.816 2.75331 123.449 2.60999 123.011 2.60999C122.595 2.60999 122.234 2.75331 121.927 3.03986C121.621 3.32614 121.467 3.68166 121.467 4.10616C121.467 4.50919 121.621 4.85934 121.927 5.15663C122.234 5.45356 122.595 5.60216 123.011 5.60216C123.449 5.60216 123.816 5.45356 124.112 5.15663C124.407 4.85934 124.555 4.50919 124.555 4.10616ZM143.376 9.23086C143.376 10.1433 143.234 11.0344 142.949 11.9045C142.664 12.7746 142.259 13.5808 141.734 14.3235C141.208 15.0663 140.584 15.7295 139.861 16.313C139.139 16.8966 138.351 17.3581 137.496 17.6976C137.737 18.0372 137.907 18.3925 138.006 18.764C138.104 19.1353 138.153 19.5012 138.153 19.8621C138.153 20.3713 138.049 20.8754 137.841 21.374C137.633 21.8726 137.338 22.3131 136.954 22.695C136.571 23.0769 136.122 23.3899 135.608 23.634C135.093 23.878 134.529 24 133.916 24H130.172V18.3978H128.858V15.7558H130.172V0.0636122H133.916C135.208 0.0636122 136.429 0.307578 137.579 0.795776C138.728 1.28371 139.73 1.94152 140.584 2.76923C141.438 3.59676 142.117 4.56752 142.621 5.68178C143.124 6.79586 143.376 7.97883 143.376 9.23086ZM133.456 21.39C134.048 21.39 134.524 21.2521 134.885 20.9762C135.246 20.7002 135.427 20.3396 135.427 19.8937C135.427 19.5118 135.296 19.1669 135.033 18.8594C134.77 18.5517 134.398 18.3978 133.916 18.3978H132.898V21.39H133.456ZM140.65 9.23086C140.65 8.33946 140.469 7.49599 140.108 6.70022C139.746 5.90445 139.265 5.2096 138.663 4.61538C138.06 4.02126 137.349 3.54907 136.527 3.19883C135.706 2.84885 134.836 2.67368 133.916 2.67368H132.898V15.7558H133.916C134.836 15.7558 135.706 15.5862 136.527 15.2466C137.349 14.9071 138.066 14.4402 138.679 13.8461C139.292 13.2519 139.774 12.557 140.124 11.7612C140.475 10.9655 140.65 10.122 140.65 9.23086ZM157.369 24V18.3661H149.256V24H146.529V18.3661H144.953V15.7558H146.529V11.9998C146.529 10.3873 146.852 8.85404 147.498 7.40036C148.144 5.94704 149.02 4.67371 150.126 3.58074C151.232 2.48804 152.518 1.62321 153.985 0.986681C155.453 0.350153 157.018 0.0316705 158.683 0.0316705H160.062V24H157.369ZM157.369 2.76923C156.208 2.93894 155.135 3.30511 154.15 3.8673C153.164 4.42975 152.31 5.1246 151.588 5.95214C150.865 6.77984 150.296 7.71357 149.88 8.75331C149.464 9.79305 149.256 10.8755 149.256 11.9998V15.7558H157.369V2.76923ZM182.989 20.1803C181.807 21.39 180.443 22.3184 178.9 22.9655C177.356 23.6127 175.73 23.9363 174.022 23.9363C172.314 23.9363 170.71 23.6181 169.21 22.9813C167.71 22.3448 166.401 21.4854 165.285 20.4032C164.168 19.3209 163.281 18.053 162.624 16.5996C161.967 15.146 161.639 13.6021 161.639 11.9682C161.639 10.3342 161.967 8.79034 162.624 7.33675C163.281 5.88316 164.173 4.61539 165.301 3.53307C166.429 2.45102 167.743 1.59155 169.243 0.954753C170.743 0.318225 172.336 0 174.022 0C175.73 0 177.356 0.323583 178.9 0.970757C180.443 1.61793 181.807 2.54638 182.989 3.75601L181.018 5.53847C180.099 4.58345 179.037 3.85665 177.832 3.35807C176.628 2.85923 175.358 2.60999 174.022 2.60999C172.708 2.60999 171.466 2.85422 170.294 3.34215C169.122 3.83026 168.099 4.49873 167.223 5.34755C166.347 6.19637 165.651 7.18842 165.137 8.32353C164.622 9.45881 164.365 10.6738 164.365 11.9682C164.365 13.2415 164.622 14.4456 165.137 15.5808C165.651 16.7162 166.347 17.7083 167.223 18.5571C168.099 19.4058 169.122 20.0797 170.294 20.5782C171.466 21.0768 172.708 21.3263 174.022 21.3263C175.358 21.3263 176.628 21.0717 177.832 20.5622C179.037 20.053 180.099 19.3209 181.018 18.3661L182.989 20.1803ZM205.916 20.1803C204.734 21.39 203.37 22.3184 201.827 22.9655C200.283 23.6127 198.657 23.9363 196.949 23.9363C195.241 23.9363 193.637 23.6181 192.137 22.9813C190.637 22.3448 189.328 21.4854 188.212 20.4032C187.095 19.3209 186.208 18.053 185.551 16.5996C184.894 15.146 184.566 13.6021 184.566 11.9682C184.566 10.3342 184.894 8.79034 185.551 7.33675C186.208 5.88316 187.1 4.61539 188.228 3.53307C189.356 2.45102 190.67 1.59155 192.17 0.954753C193.67 0.318225 195.263 0 196.949 0C198.657 0 200.283 0.323583 201.827 0.970757C203.37 1.61793 204.734 2.54638 205.916 3.75601L203.945 5.53847C203.025 4.58345 201.964 3.85665 200.759 3.35807C199.555 2.85923 198.285 2.60999 196.949 2.60999C195.635 2.60999 194.393 2.85422 193.221 3.34215C192.049 3.83026 191.025 4.49873 190.15 5.34755C189.274 6.19637 188.578 7.18842 188.064 8.32353C187.549 9.45881 187.292 10.6738 187.292 11.9682C187.292 13.2415 187.549 14.4456 188.064 15.5808C188.578 16.7162 189.274 17.7083 190.15 18.5571C191.025 19.4058 192.049 20.0797 193.221 20.5782C194.393 21.0768 195.635 21.3263 196.949 21.3263C198.285 21.3263 199.555 21.0717 200.759 20.5622C201.964 20.053 203.025 19.3209 203.945 18.3661L205.916 20.1803ZM216 4.10616C216 4.65779 215.885 5.18293 215.655 5.68178C215.425 6.18035 215.113 6.61524 214.719 6.98678C214.325 7.35805 213.87 7.65524 213.356 7.87792C212.841 8.10086 212.299 8.21214 211.73 8.21214C211.161 8.21214 210.618 8.10086 210.104 7.87792C209.589 7.65524 209.14 7.35805 208.757 6.98678C208.374 6.61524 208.068 6.18035 207.838 5.68178C207.608 5.18293 207.493 4.65779 207.493 4.10616C207.493 3.55435 207.608 3.02921 207.838 2.53037C208.068 2.03179 208.374 1.59691 208.757 1.22537C209.14 0.854099 209.589 0.556901 210.104 0.334229C210.618 0.111287 211.161 0 211.73 0C212.299 0 212.841 0.111287 213.356 0.334229C213.87 0.556901 214.325 0.854099 214.719 1.22537C215.113 1.59691 215.425 2.03179 215.655 2.53037C215.885 3.02921 216 3.55435 216 4.10616ZM213.274 4.10616C213.274 3.68166 213.126 3.32614 212.83 3.03986C212.535 2.75331 212.168 2.60999 211.73 2.60999C211.314 2.60999 210.952 2.75331 210.646 3.03986C210.339 3.32614 210.186 3.68166 210.186 4.10616C210.186 4.50919 210.339 4.85934 210.646 5.15663C210.952 5.45356 211.314 5.60216 211.73 5.60216C212.168 5.60216 212.535 5.45356 212.83 5.15663C213.126 4.85934 213.274 4.50919 213.274 4.10616Z" fill="#A27347"/>
</svg>
