<svg width="360" height="40" viewBox="0 0 360 40" fill="none" xmlns="http://www.w3.org/2000/svg">
<path fill-rule="evenodd" clip-rule="evenodd" d="M21.0269 40C18.2245 40 15.577 39.4695 13.0838 38.4086C10.5907 37.3474 8.41605 35.915 6.56006 34.1116C4.70376 32.3075 3.22983 30.1943 2.13811 27.7721C1.0464 25.3494 0.5 22.7584 0.5 19.9997C0.5 17.2766 1.0464 14.7038 2.13811 12.2812C3.22983 9.8585 4.71297 7.74523 6.58707 5.94166C8.46178 4.13779 10.6365 2.70535 13.1113 1.64447C15.5861 0.583588 18.2245 0.0527841 21.0269 0.0527841V4.45613C18.8434 4.45613 16.7778 4.86305 14.8306 5.67627C12.8837 6.48993 11.1822 7.60403 9.72657 9.01874C8.27029 10.4333 7.11505 12.0867 6.25963 13.9786C5.40451 15.8709 4.97688 17.8781 4.97688 19.9997C4.97688 22.1219 5.40451 24.1291 6.25963 26.0214C7.11505 27.9133 8.27029 29.5667 9.72657 30.9813C11.1822 32.396 12.8837 33.5189 14.8306 34.3503C16.7778 35.1812 18.8434 35.5968 21.0269 35.5968V40ZM23.6473 40V0.0527841H28.1242V40H23.6473ZM50.9436 40C48.1778 40 45.5663 39.4517 43.1098 38.3554C40.6532 37.259 38.5146 35.7911 36.6953 33.9522C34.8755 32.1131 33.4289 29.9821 32.3549 27.5595C31.2815 25.1372 30.7443 22.5995 30.7443 19.9469C30.7443 17.2589 31.2724 14.7216 32.3275 12.3339C33.3831 9.94678 34.8298 7.85126 36.6678 6.04784C38.506 4.24397 40.6442 2.80257 43.0825 1.72395C45.5207 0.645326 48.1229 0.0705259 50.8893 0V4.34998C48.7419 4.42095 46.722 4.88035 44.8295 5.72951C42.9367 6.57821 41.2809 7.71005 39.8616 9.12476C38.442 10.5395 37.3138 12.1751 36.4769 14.0318C35.6396 15.8886 35.2212 17.8602 35.2212 19.9469C35.2212 21.8215 35.567 23.6338 36.2581 25.3845C36.9497 27.1351 37.8961 28.7003 39.097 30.0798C40.2983 31.4588 41.7176 32.6259 43.3556 33.581C44.9931 34.5359 46.7763 35.1545 48.7054 35.4378V30.6101H42.4817V26.2597H53.2366V40H50.9436ZM76.4926 40V30.6101H63.0085V40H58.4773V30.6101H55.8567V26.2597H58.4773V19.9997C58.4773 17.3121 59.014 14.7567 60.0879 12.3339C61.1614 9.91174 62.617 7.78952 64.4551 5.9679C66.2933 4.14674 68.4314 2.70535 70.8697 1.64447C73.3085 0.583588 75.9107 0.0527841 78.6765 0.0527841H80.9695V40H76.4926ZM76.4926 4.61539C74.5641 4.89824 72.7803 5.50852 71.1429 6.44549C69.5049 7.38291 68.0856 8.54101 66.8848 9.92023C65.6833 11.2997 64.7374 12.856 64.0459 14.5888C63.3543 16.3217 63.0085 18.1258 63.0085 19.9997V26.2597H76.4926V4.61539ZM104.881 40C103.061 40 101.323 39.4695 99.6674 38.4086C98.0115 37.3474 96.4736 35.8355 95.0543 33.8727C93.6347 31.9099 92.3428 29.54 91.1781 26.764C90.0133 23.9875 88.9942 20.9018 88.1208 17.5065V40H83.5896V0H89.1035C90.0864 0 91.0055 0.185479 91.8606 0.557048C92.7156 0.928169 93.462 1.4235 94.0988 2.04228C94.7359 2.66151 95.2453 3.38632 95.6275 4.21728C96.0094 5.04869 96.2008 5.94168 96.2008 6.89654C96.2008 8.3111 95.7911 9.60189 94.9722 10.7694C94.1536 11.9363 93.0705 12.7672 91.7239 13.2626C92.4521 16.5162 93.298 19.5138 94.2627 22.2546C95.2271 24.9956 96.2826 27.3561 97.429 29.3368C98.5757 31.3173 99.7765 32.8646 101.032 33.9789C102.288 35.093 103.571 35.65 104.881 35.65V40ZM90.9598 5.09252C90.5956 4.7393 90.2408 4.5271 89.8951 4.45613C89.5497 4.38546 89.1765 4.34998 88.7759 4.34998H88.1208V9.33693C88.594 9.33693 88.9216 9.35468 89.1035 9.38972C89.868 9.38972 90.4865 9.13371 90.9598 8.62049C91.433 8.10787 91.6696 7.53307 91.6696 6.89654C91.6696 6.15385 91.433 5.55251 90.9598 5.09252ZM155.652 22.2281C153.941 22.2281 152.267 22.4757 150.629 22.9706C150.848 23.5721 151.002 24.1909 151.093 24.8274C151.184 25.4644 151.23 26.083 151.23 26.6841C151.23 28.4881 150.866 30.2032 150.138 31.8304C149.41 33.4573 148.419 34.8718 147.163 36.0744C145.907 37.2768 144.451 38.2316 142.795 38.9391C141.139 39.6462 139.383 40 137.527 40C135.671 40 133.915 39.6462 132.259 38.9391C130.603 38.2316 129.157 37.2768 127.919 36.0744C126.682 34.8718 125.699 33.4573 124.971 31.8304C124.243 30.2032 123.879 28.4881 123.879 26.6841C123.879 24.4563 124.434 22.3696 125.544 20.4245C126.654 18.479 128.155 16.9055 130.048 15.7029C129.138 14.8539 128.447 13.8636 127.973 12.7322C127.5 11.6003 127.264 10.4333 127.264 9.23078C127.264 7.99291 127.509 6.81705 128.001 5.70294C128.492 4.58883 129.166 3.61624 130.021 2.78528C130.876 1.95388 131.877 1.29079 133.023 0.795763C134.17 0.300437 135.38 0.0527841 136.654 0.0527841C138.037 0.0527841 139.365 0.344889 140.639 0.928186C141.913 1.51178 143.005 2.33437 143.915 3.39525L140.421 6.15384C139.438 5.02198 138.183 4.45613 136.654 4.45613C135.999 4.45613 135.371 4.5799 134.77 4.82756C134.17 5.07523 133.642 5.41131 133.187 5.83566C132.732 6.26001 132.377 6.76384 132.122 7.34743C131.868 7.93118 131.741 8.55876 131.741 9.23078C131.741 10.3623 132.141 11.3792 132.941 12.2812C133.742 13.1831 134.78 13.6692 136.053 13.7401V18.0903C134.961 18.2318 133.942 18.5589 132.996 19.0717C132.05 19.5843 131.231 20.2208 130.539 20.9816C129.848 21.742 129.311 22.6172 128.929 23.6076C128.547 24.5979 128.356 25.6232 128.356 26.6841C128.356 27.9221 128.602 29.0806 129.093 30.1592C129.584 31.2379 130.239 32.1838 131.058 32.9973C131.877 33.8105 132.841 34.4475 133.951 34.9069C135.061 35.3667 136.253 35.5968 137.527 35.5968C138.838 35.5968 140.048 35.349 141.158 34.8541C142.268 34.3588 143.232 33.7045 144.051 32.8913C144.87 32.0776 145.516 31.1407 145.989 30.0798C146.462 29.0184 146.699 27.9221 146.699 26.7907C146.699 26.4719 146.69 26.1448 146.671 25.8088C146.653 25.4732 146.608 25.146 146.535 24.8274C144.024 26.4191 142.058 28.5236 140.639 31.1407L136.654 29.1778C137.564 27.48 138.692 25.9326 140.038 24.5358C141.385 23.1388 142.886 21.9452 144.542 20.955C146.199 19.9647 147.973 19.2044 149.865 18.6739C151.758 18.1431 153.687 17.8781 155.652 17.8781V22.2281ZM187.206 4.45613V40H182.73V4.45613H174.65V0.0527841H195.286V4.45613H187.206ZM212.046 6.8436C212.046 7.76298 211.855 8.63822 211.473 9.46963C211.09 10.3006 210.572 11.0254 209.917 11.6446C209.262 12.2634 208.507 12.7587 207.651 13.1299C206.796 13.5014 205.895 13.6869 204.949 13.6869C204.003 13.6869 203.102 13.5014 202.247 13.1299C201.391 12.7587 200.645 12.2634 200.008 11.6446C199.371 11.0254 198.862 10.3006 198.48 9.46963C198.098 8.63822 197.907 7.76298 197.907 6.8436C197.907 5.92392 198.098 5.04869 198.48 4.21728C198.862 3.38632 199.371 2.66151 200.008 2.04228C200.645 1.4235 201.391 0.928169 202.247 0.557048C203.102 0.185479 204.003 0 204.949 0C205.895 0 206.796 0.185479 207.651 0.557048C208.507 0.928169 209.262 1.4235 209.917 2.04228C210.572 2.66151 211.09 3.38632 211.473 4.21728C211.855 5.04869 212.046 5.92392 212.046 6.8436ZM207.515 6.8436C207.515 6.1361 207.269 5.54357 206.778 5.06644C206.287 4.58886 205.677 4.34998 204.949 4.34998C204.257 4.34998 203.657 4.58886 203.148 5.06644C202.638 5.54357 202.383 6.1361 202.383 6.8436C202.383 7.51532 202.638 8.09891 203.148 8.59438C203.657 9.08926 204.257 9.33693 204.949 9.33693C205.677 9.33693 206.287 9.08926 206.778 8.59438C207.269 8.09891 207.515 7.51532 207.515 6.8436ZM238.796 15.3848C238.796 16.9055 238.56 18.3907 238.087 19.8409C237.613 21.2909 236.94 22.6347 236.067 23.8725C235.193 25.1106 234.156 26.2159 232.955 27.1883C231.754 28.1609 230.444 28.9302 229.024 29.496C229.425 30.062 229.707 30.6541 229.871 31.2734C230.034 31.8921 230.116 32.502 230.116 33.1035C230.116 33.9522 229.943 34.7924 229.597 35.6233C229.252 36.4543 228.76 37.1885 228.123 37.825C227.487 38.4615 226.74 38.9831 225.885 39.39C225.03 39.7966 224.093 40 223.074 40H216.85V30.6631H214.666V26.2597H216.85V0.10602H223.074C225.221 0.10602 227.25 0.51263 229.161 1.32629C231.071 2.13951 232.736 3.23587 234.156 4.61539C235.575 5.99461 236.703 7.61253 237.541 9.46963C238.378 11.3264 238.796 13.2981 238.796 15.3848ZM222.309 35.65C223.292 35.65 224.084 35.4201 224.684 34.9603C225.284 34.5003 225.585 33.8994 225.585 33.1562C225.585 32.5197 225.367 31.9449 224.93 31.4323C224.493 30.9195 223.874 30.6631 223.074 30.6631H221.381V35.65H222.309ZM234.265 15.3848C234.265 13.8991 233.965 12.4933 233.364 11.167C232.764 9.84075 231.963 8.68266 230.962 7.69231C229.961 6.7021 228.778 5.91512 227.414 5.33138C226.049 4.74808 224.602 4.45613 223.074 4.45613H221.381V26.2597H223.074C224.602 26.2597 226.049 25.977 227.414 25.411C228.778 24.8452 229.971 24.067 230.99 23.0768C232.009 22.0864 232.809 20.9283 233.391 19.6021C233.974 18.2758 234.265 16.87 234.265 15.3848ZM262.052 40V30.6101H248.568V40H244.037V30.6101H241.417V26.2597H244.037V19.9997C244.037 17.3121 244.574 14.7567 245.648 12.3339C246.721 9.91174 248.177 7.78952 250.015 5.9679C251.853 4.14674 253.991 2.70535 256.43 1.64447C258.868 0.583588 261.47 0.0527841 264.236 0.0527841H266.529V40H262.052ZM262.052 4.61539C260.124 4.89824 258.34 5.50852 256.703 6.44549C255.065 7.38291 253.645 8.54101 252.445 9.92023C251.243 11.2997 250.297 12.856 249.606 14.5888C248.914 16.3217 248.568 18.1258 248.568 19.9997V26.2597H262.052V4.61539ZM304.635 33.6338C302.669 35.65 300.404 37.1973 297.838 38.2759C295.272 39.3545 292.57 39.8938 289.731 39.8938C286.892 39.8938 284.226 39.3635 281.733 38.3021C279.24 37.2413 277.065 35.809 275.21 34.0054C273.353 32.2015 271.879 30.0883 270.787 27.6659C269.696 25.2433 269.149 22.6702 269.149 19.9469C269.149 17.2237 269.696 14.6506 270.787 12.2279C271.879 9.80527 273.362 7.69231 275.237 5.88845C277.111 4.08503 279.295 2.65258 281.788 1.59125C284.281 0.530374 286.929 0 289.731 0C292.57 0 295.272 0.539305 297.838 1.61793C300.404 2.69655 302.669 4.24397 304.635 6.26001L301.359 9.23078C299.83 7.63908 298.065 6.42775 296.064 5.59679C294.062 4.76538 291.951 4.34998 289.731 4.34998C287.547 4.34998 285.482 4.75703 283.535 5.57025C281.588 6.38376 279.886 7.49788 278.43 8.91258C276.975 10.3273 275.819 11.9807 274.964 13.8725C274.108 15.7647 273.681 17.7897 273.681 19.9469C273.681 22.0691 274.108 24.0759 274.964 25.9681C275.819 27.8603 276.975 29.5138 278.43 30.9285C279.886 32.343 281.588 33.4661 283.535 34.2971C285.482 35.128 287.547 35.5439 289.731 35.5439C291.951 35.5439 294.062 35.1195 296.064 34.2704C298.065 33.4217 299.83 32.2015 301.359 30.6101L304.635 33.6338ZM342.74 33.6338C340.775 35.65 338.509 37.1973 335.943 38.2759C333.378 39.3545 330.675 39.8938 327.837 39.8938C324.998 39.8938 322.332 39.3635 319.839 38.3021C317.346 37.2413 315.171 35.809 313.315 34.0054C311.459 32.2015 309.985 30.0883 308.893 27.6659C307.801 25.2433 307.255 22.6702 307.255 19.9469C307.255 17.2237 307.801 14.6506 308.893 12.2279C309.985 9.80527 311.468 7.69231 313.342 5.88845C315.216 4.08503 317.4 2.65258 319.893 1.59125C322.386 0.530374 325.034 0 327.837 0C330.675 0 333.378 0.539305 335.943 1.61793C338.509 2.69655 340.775 4.24397 342.74 6.26001L339.465 9.23078C337.936 7.63908 336.171 6.42775 334.169 5.59679C332.168 4.76538 330.056 4.34998 327.837 4.34998C325.653 4.34998 323.587 4.75703 321.64 5.57025C319.693 6.38376 317.991 7.49788 316.536 8.91258C315.08 10.3273 313.924 11.9807 313.069 13.8725C312.214 15.7647 311.786 17.7897 311.786 19.9469C311.786 22.0691 312.214 24.0759 313.069 25.9681C313.924 27.8603 315.08 29.5138 316.536 30.9285C317.991 32.343 319.693 33.4661 321.64 34.2971C323.587 35.128 325.653 35.5439 327.837 35.5439C330.056 35.5439 332.168 35.1195 334.169 34.2704C336.171 33.4217 337.936 32.2015 339.465 30.6101L342.74 33.6338ZM359.5 6.8436C359.5 7.76298 359.309 8.63822 358.927 9.46963C358.544 10.3006 358.026 11.0254 357.371 11.6446C356.716 12.2634 355.96 12.7587 355.105 13.1299C354.25 13.5014 353.349 13.6869 352.403 13.6869C351.457 13.6869 350.556 13.5014 349.701 13.1299C348.845 12.7587 348.099 12.2634 347.462 11.6446C346.825 11.0254 346.316 10.3006 345.934 9.46963C345.552 8.63822 345.36 7.76298 345.36 6.8436C345.36 5.92392 345.552 5.04869 345.934 4.21728C346.316 3.38632 346.825 2.66151 347.462 2.04228C348.099 1.4235 348.845 0.928169 349.701 0.557048C350.556 0.185479 351.457 0 352.403 0C353.349 0 354.25 0.185479 355.105 0.557048C355.96 0.928169 356.716 1.4235 357.371 2.04228C358.026 2.66151 358.544 3.38632 358.927 4.21728C359.309 5.04869 359.5 5.92392 359.5 6.8436ZM354.969 6.8436C354.969 6.1361 354.723 5.54357 354.232 5.06644C353.741 4.58886 353.131 4.34998 352.403 4.34998C351.711 4.34998 351.111 4.58886 350.601 5.06644C350.092 5.54357 349.837 6.1361 349.837 6.8436C349.837 7.51532 350.092 8.09891 350.601 8.59438C351.111 9.08926 351.711 9.33693 352.403 9.33693C353.131 9.33693 353.741 9.08926 354.232 8.59438C354.723 8.09891 354.969 7.51532 354.969 6.8436Z" fill="#A27347"/>
</svg>
