<svg width="252" height="84" viewBox="0 0 252 84" fill="none" xmlns="http://www.w3.org/2000/svg">
<g opacity="0.8">
<path d="M194.069 13.0003C193.863 13.0053 193.645 13.0599 193.37 13.1655C192.966 13.3199 190.314 15.689 187.442 18.4588C184.581 21.2165 179.806 25.8162 176.832 28.6799C173.858 31.5439 169.813 35.4528 167.843 37.367L164.266 40.8458L161.773 40.8565L159.281 40.8673L159.737 40.384C159.989 40.1182 161.457 38.6094 163.004 37.0314C165.702 34.2742 165.925 34.104 168.632 32.7305C172.561 30.7358 174.511 29.3315 178.526 25.6019C182.295 22.1017 185.365 18.5214 186.47 16.3396C187.552 14.2031 187.164 12.8986 185.553 13.261C184.793 13.4319 183.737 14.4053 171.624 26.0656C164.187 33.2243 164.08 33.3166 162.626 33.7462C161.814 33.9854 160.848 34.2273 160.474 34.2836C159.873 34.3746 159.812 34.332 159.948 33.915C160.413 32.4779 160.375 31.847 159.809 31.4795C158.565 30.6725 156.058 31.28 153.13 33.0986C152.274 33.6304 149.689 35.8233 147.383 37.9716C144.452 40.7035 142.845 42.0324 142.035 42.3948C140.843 42.9264 140.17 42.8056 140.593 42.1371C140.753 41.8874 159.83 22.7975 166.39 16.3269L167.568 15.1639L165.557 15.1744L163.546 15.1843L155.646 23.3887C151.299 27.9011 147.615 31.6929 147.458 31.8145C147.258 31.9681 146.953 31.8857 146.457 31.5455C145.592 30.9541 144.554 31.0467 142.131 31.9311C138.777 33.1563 135.536 35.7256 133.079 39.1115C131.834 40.827 130.09 42.129 127.923 42.9667C126.458 43.5304 126.487 42.8969 127.998 41.3666C128.692 40.6659 130.877 38.4454 132.855 36.4346C134.834 34.4238 136.778 32.4551 137.175 32.0588L137.898 31.3385H135.966H134.033L129.992 35.6821C125.097 40.9451 124.157 42.1774 124.157 43.3264C124.157 43.9412 124.296 44.2553 124.688 44.5103C125.727 45.1842 126.797 44.8781 129.664 43.0928L131.46 41.9733L131.529 42.5828C131.645 43.6137 132.063 44.3412 132.684 44.6043C133.575 44.9802 134.013 44.9184 135.556 44.1936C137.126 43.4553 137.326 43.4096 137.326 43.7855C137.326 44.2634 138.113 44.854 138.739 44.8486C139.598 44.8432 141.168 44.1506 142.981 42.9774L144.51 41.9894V42.8378C144.51 44.0808 145.247 44.854 146.437 44.854C148.949 44.854 154.024 41.431 156.983 37.7385C158.097 36.3452 158.245 36.2426 159.423 36.0424C160.111 35.925 160.889 35.746 161.153 35.6445C161.599 35.4719 161.608 35.4901 161.271 35.9234C161.074 36.1785 158.283 38.9262 155.065 42.027L149.219 47.6675L103.905 47.791L58.5913 47.9145L58.0879 48.379L57.5859 48.8434H102.743H147.906L146.868 49.9334C146.296 50.5321 141.735 54.9779 136.73 59.8157C131.725 64.6507 127.115 69.1395 126.482 69.7919L125.339 70.9758L127.083 70.855C128.04 70.7879 129.111 70.6698 129.459 70.5892C130.115 70.4416 130.686 69.8805 144.108 56.2182L151.336 48.8595L153.549 48.8515C154.768 48.8461 155.766 48.9078 155.766 48.9884C155.766 49.0662 154.823 50.0381 153.671 51.1469C152.519 52.2556 148.614 56.0544 144.999 59.5901C141.381 63.1232 137.238 67.1368 135.793 68.5086L133.164 71H133.988C134.441 70.9973 135.538 70.9329 136.423 70.8577L138.03 70.7154L145.64 62.9487C149.827 58.6774 154.64 53.7564 156.335 52.014L159.419 48.8434H167.81C175.284 48.8434 176.25 48.8031 176.639 48.4756C176.882 48.2743 177.077 48.0246 177.077 47.9226C177.077 47.8179 173.354 47.7346 168.802 47.7346H160.527L163.217 44.9641L165.909 42.1962H174.315H182.723L183.898 41.0928C184.542 40.486 185.021 39.9437 184.96 39.8873C184.902 39.8337 184.098 39.8739 183.178 39.9786C179.929 40.3518 170.946 40.8968 169.191 40.827L167.406 40.7545L169.243 38.8725C170.308 37.7788 171.883 36.4778 173.003 35.7701C177.863 32.6986 178.969 31.9034 182.845 28.6799C188.732 23.7831 192.654 19.5708 194.535 16.1334C195.46 14.4418 195.509 13.4799 194.688 13.1341C194.468 13.0405 194.276 12.9954 194.07 13.0004L194.069 13.0003ZM193.79 14.1665C194.875 14.1665 193.509 16.6434 190.552 20.0381C188.295 22.6302 180.847 29.2388 177.627 31.5046C176.025 32.6319 174.641 33.5544 174.554 33.5544C174.464 33.5544 175.291 32.6424 176.391 31.5277C177.493 30.413 181.767 26.0504 185.89 21.8334C190.135 17.4909 193.561 14.1665 193.79 14.1665ZM185.481 14.4989C186.653 14.4989 186.035 15.8981 183.427 19.152C180.38 22.9545 172.744 29.6611 169.964 30.9761C168.888 31.4848 168.583 31.4279 169.105 30.8155C169.349 30.528 173.04 26.7394 177.302 22.3961C181.958 17.6531 185.225 14.4989 185.481 14.4989ZM158.556 32.225C159.621 32.225 159.571 32.57 158.457 32.8999C156.664 33.4315 155.907 34.8135 156.87 35.7985C157.23 36.1666 157.207 36.2557 156.513 37.0644C155.315 38.4655 151.691 41.541 150.159 42.4565C148.346 43.5438 147.383 43.5895 147.383 42.5908C147.383 41.541 149.472 38.953 152.826 35.8493C155.295 33.5644 157.413 32.225 158.556 32.225ZM145.697 32.2491C145.917 32.262 145.946 32.3922 145.946 32.727C145.946 33.0422 145.459 33.8956 144.826 34.6927C143.422 36.4555 139.357 40.3437 137.422 41.7692C135.269 43.3559 134.213 43.6056 134.213 42.529C134.213 41.6323 136.601 38.6282 139.235 36.2133C141.803 33.8589 143.759 32.5748 145.172 32.3133C145.349 32.2803 145.485 32.258 145.592 32.2507C145.63 32.2481 145.668 32.2473 145.697 32.2491ZM157.793 42.1961H160.407H163.018L160.726 44.3546C159.464 45.5439 158.202 46.7896 157.92 47.1252C157.418 47.7212 157.349 47.7346 154.9 47.7346H152.393L155.094 44.964L157.793 42.1961Z" fill="#CBC0C2"/>
<path d="M114.483 16.0947C113.427 16.1141 112.383 16.204 111.553 16.3702C108.976 16.8848 105.274 18.585 103.238 20.187C102.335 20.8973 101.297 21.7078 100.928 21.9881L100.258 22.4971L98.4967 21.3991C96.2916 20.0224 94.426 19.2994 91.162 18.5542C88.9685 18.0535 88.0749 17.9676 85.0023 17.9657C79.5982 17.9622 74.1528 19.0463 69.0284 21.1454C62.5374 23.8046 57.455 28.7062 56.2498 33.4686C55.39 36.8671 56.7793 39.7985 59.9621 41.3019C64.9311 43.6456 73.9764 42.1315 80.4764 37.8626C86.4907 33.9137 87.3872 28.2716 82.2924 26.4366C80.2283 25.6938 77.0142 25.741 74.4673 26.5515C71.9153 27.3634 70.2978 28.248 68.4699 29.83C65.9918 31.9751 65.1582 34.1282 66.1964 35.7033C67.1498 37.1503 70.0378 37.1463 71.8268 35.6961C73.585 34.2708 73.057 32.2248 70.9308 32.2248C69.1276 32.2248 67.7042 33.5615 67.9592 35.016C68.1795 36.2727 67.1561 35.9264 66.803 34.6249C66.3844 33.0809 69.022 30.1157 72.148 28.6158C74.7372 27.3736 76.1136 27.0391 78.6581 27.0332C80.5664 27.0291 81.1191 27.1121 82.0887 27.5492C84.2944 28.5438 84.4423 30.2966 82.539 32.8755C80.73 35.3288 75.8696 38.1595 71.4743 39.3206C69.2408 39.9113 64.75 40.1475 62.8235 39.777C61.0969 39.4441 59.4651 38.4817 58.6179 37.2975C57.2624 35.4018 57.6663 32.1942 59.6012 29.4966C63.9466 23.4392 73.4658 19.7778 84.0448 20.0946C87.0275 20.1838 88.0023 20.3032 89.7809 20.7967C92.3863 21.5194 95.2674 22.8743 96.7297 24.0666L97.8148 24.9517L97.3709 25.476C96.5237 26.4731 84.48 38.5448 83.1889 39.6911C80.0192 42.5073 76.4745 44.3383 73.5993 44.647C72.6282 44.749 71.2137 44.8403 70.4565 44.8457C69.1329 44.8537 68.7458 45.0712 69.3786 45.4497C69.5434 45.5491 70.9712 45.686 72.5516 45.7531C77.5161 45.9679 79.4145 45.9652 82.217 45.737C90.3931 45.0658 96.2162 42.7597 100.406 38.5313C104.125 34.7728 105.004 30.3922 102.918 26.0208L102.335 24.8022L104.445 22.9119C106.835 20.7717 109.316 19.1665 111.509 18.3415C113.793 17.4835 116.387 16.938 118.267 16.9208L119.964 16.905L119.007 16.5651C118.055 16.2271 116.247 16.0628 114.483 16.0947ZM99.6688 27.4847L100.029 28.1376C100.948 29.8153 100.716 32.6382 99.4599 35.0123C96.9386 39.7743 91.0285 43.3315 83.6967 44.4967C82.4607 44.6927 80.5234 44.8537 79.3942 44.851L77.3412 44.8484L80.0577 43.8362C85.3098 41.8791 86.7199 40.8402 93.2045 34.1524C95.9376 31.3335 98.5112 28.6802 98.9232 28.256L99.6688 27.4847Z" fill="#CBC0C2"/>
<path d="M141.383 24.4932C140.925 24.4943 140.371 24.5901 139.726 24.8003C137.417 25.5547 135.313 27.1945 127.509 34.3341C120.107 41.1035 118.555 42.4163 117.954 42.4163C117.215 42.4163 118.036 41.1626 121.593 36.8472C123.74 34.2442 125.576 31.9893 125.678 31.8371C125.817 31.6253 125.449 31.5603 124.105 31.5603H122.347L119.599 34.4724C116.701 37.5463 114.296 39.6404 111.673 41.3693C110.271 42.2955 108.592 42.9425 108.592 42.5559C108.592 42.4807 111.006 40.0001 113.956 37.0454L119.321 31.6709L117.632 31.6054C116.701 31.5692 115.839 31.6355 115.712 31.7528C115.564 31.8892 115.21 31.8137 114.731 31.5423C113.077 30.6097 110.614 31.1635 107.274 33.2178C101.811 36.5806 97.8854 42.9291 100.279 44.5318C101.074 45.0634 102.838 44.8406 104.242 44.0325L105.4 43.3667L105.618 44.0566C106.108 45.595 108.206 44.8996 112.77 41.6861C116.634 38.9638 116.475 39.0524 115.816 39.9813C114.473 41.8713 114.037 43.5143 114.702 44.1962C116.068 45.5923 118.372 44.0352 127.509 35.5468C134.382 29.1616 137.475 27.0455 137.875 28.4576C138.163 29.4797 139.976 29.3922 141.221 28.2963C143.533 26.2664 143.368 24.4878 141.383 24.4932ZM113.55 32.3195C113.765 32.3193 113.95 32.3614 114.101 32.4476C114.409 32.6248 114.394 32.7566 113.988 33.4562C113.367 34.5234 106.558 41.0203 104.721 42.2982C102.908 43.56 102.127 43.6325 102.127 42.5344C102.127 41.8042 103.337 40.1988 105.737 37.7576C109.05 34.3814 112.047 32.3206 113.55 32.3195Z" fill="#CBC0C2"/>
</g>
</svg>
